<svg width="45" height="45" viewBox="0 0 45 45" fill="none" xmlns="http://www.w3.org/2000/svg">
<g clip-path="url(#clip0_2006_2)">
<path d="M44.688 9.93016C44.688 4.45441 40.2331 0 34.7573 0C29.2811 0 24.8267 4.45441 24.8267 9.93016V21.509C24.8267 22.4231 25.5678 23.1642 26.4819 23.1642C27.3961 23.1642 28.1372 22.4231 28.1372 21.509V9.93016C28.1372 6.28017 31.1073 3.31005 34.7573 3.31005C38.4073 3.31005 41.3774 6.28017 41.3774 9.93016V28.1602C39.6191 26.5845 37.2982 25.625 34.7573 25.625H9.93016C7.3893 25.625 5.06844 26.5845 3.31005 28.1602V9.93016C3.31005 6.28017 6.28017 3.31005 9.93016 3.31005C13.5807 3.31005 16.5503 6.28017 16.5503 9.93016V21.509C16.5503 22.4231 17.2914 23.1642 18.2055 23.1642C19.1202 23.1642 19.8608 22.4231 19.8608 21.509V9.93016C19.8608 4.45441 15.4064 0 9.93016 0C4.45441 0 0 4.45441 0 9.93016V34.7573C0 34.8911 0.00357298 35.0238 0.00867708 35.156C0.00357298 35.2882 0 35.4214 0 35.5546H0.0321563C0.439469 40.6588 4.7234 44.688 9.93016 44.688C15.4064 44.688 19.8608 40.2331 19.8608 34.7573V33.1781C19.8608 32.2634 19.1202 31.5228 18.2055 31.5228C17.2914 31.5228 16.5503 32.2634 16.5503 33.1781V34.7573C16.5503 38.4073 13.5807 41.3774 9.93016 41.3774C6.41441 41.3774 3.53004 38.6212 3.32281 35.156C3.53004 31.6908 6.41339 28.9345 9.93016 28.9345H34.7573C38.2731 28.9345 41.1575 31.6908 41.3647 35.156C41.1575 38.6212 38.2741 41.3774 34.7573 41.3774C31.1073 41.3774 28.1372 38.4073 28.1372 34.7573V33.1781C28.1372 32.2634 27.3961 31.5228 26.4819 31.5228C25.5678 31.5228 24.8267 32.2634 24.8267 33.1781V34.7573C24.8267 40.2331 29.2811 44.688 34.7573 44.688C39.9641 44.688 44.248 40.6588 44.6558 35.5551H44.688C44.688 35.4214 44.6844 35.2892 44.6788 35.157C44.6844 35.0243 44.688 34.8911 44.688 34.7584V9.93016Z" fill="#19CEB3"/>
</g>
<defs>
<clipPath id="clip0_2006_2">
<rect width="45" height="45" fill="white"/>
</clipPath>
</defs>
</svg>
